<?xml version="1.0" standalone="no"?>
<!DOCTYPE svg PUBLIC "-//W3C//DTD SVG 20010904//EN"
 "http://www.w3.org/TR/2001/REC-SVG-20010904/DTD/svg10.dtd">
<svg version="1.0" xmlns="http://www.w3.org/2000/svg"
 width="1024.000000pt" height="1024.000000pt" viewBox="0 0 1024.000000 1024.000000"
 preserveAspectRatio="xMidYMid meet">

<g transform="translate(0.000000,1024.000000) scale(0.100000,-0.100000)"
fill="#000000" stroke="none">
<path d="M0 5120 l0 -5120 5120 0 5120 0 0 5120 0 5120 -5120 0 -5120 0 0
-5120z m4535 2483 c-23 -55 -25 -57 -82 -74 -32 -10 -61 -18 -65 -16 -6 2 34
112 45 124 4 4 78 18 113 22 7 1 3 -21 -11 -56z m344 9 l53 -42 -100 0 c-54 0
-120 -3 -146 -6 -58 -8 -60 5 -6 58 38 39 42 40 93 36 43 -4 62 -12 106 -46z
m-587 -72 c-2 -33 -5 -60 -8 -60 -2 0 -27 -9 -55 -20 l-52 -21 5 46 c3 25 14
55 24 67 16 17 66 46 84 48 3 0 3 -27 2 -60z m-206 -70 l-1 -60 -43 -17 c-37
-14 -45 -14 -53 -2 -29 46 3 93 97 139 0 0 0 -27 0 -60z m887 -36 c9 -3 15 -9
12 -14 -3 -5 -1 -10 5 -12 5 -1 6 -8 2 -14 -4 -6 -46 -14 -93 -17 -103 -7
-165 -22 -371 -89 l-157 -52 -81 15 -82 16 7 -21 c17 -55 16 -56 -115 -102
-68 -24 -133 -44 -143 -44 -16 0 -47 51 -47 79 0 22 548 210 775 265 23 5 261
-3 288 -10z m5 -171 c6 -3 11 -18 10 -33 -1 -16 -6 -26 -10 -24 -4 3 -8 1 -8
-4 0 -5 -39 -12 -87 -15 -64 -5 -139 -21 -273 -60 -102 -30 -189 -52 -193 -48
-4 4 -10 23 -13 42 l-6 34 114 34 c250 76 269 80 363 79 50 0 96 -3 103 -5z
m-711 -202 l10 -39 -101 -31 c-55 -17 -108 -31 -118 -31 -20 0 -43 59 -25 65
37 14 213 74 218 74 4 1 11 -16 16 -38z m701 32 c-24 -4 -26 -7 -18 -23 16
-29 2 -50 -34 -50 -26 0 -123 -23 -342 -81 -38 -10 -45 -8 -83 16 -22 15 -41
29 -41 31 0 4 162 53 280 85 75 19 128 27 185 27 44 -1 68 -3 53 -5z m17 -163
c4 -6 10 -8 14 -5 5 2 16 -4 26 -15 10 -11 14 -20 9 -20 -5 0 -2 -5 6 -11 11
-8 6 -9 -22 -7 -20 2 -34 0 -32 -4 3 -4 -6 -8 -19 -8 -13 0 -106 -20 -206 -45
-100 -25 -183 -45 -184 -45 -1 0 -2 18 -2 40 -1 22 0 40 1 40 2 0 58 16 126
36 103 29 163 41 265 53 6 0 15 -4 18 -9z m-731 -27 c-7 -16 -14 -35 -14 -44
0 -18 -27 -33 -85 -48 -55 -15 -52 -16 -57 28 l-3 39 85 25 c47 14 86 25 87
26 1 0 -5 -11 -13 -26z m3609 -325 c42 -123 77 -230 79 -238 2 -11 -33 -27
-132 -61 -74 -26 -138 -45 -142 -43 -3 2 -25 65 -49 139 -38 121 -44 134 -63
130 -12 -2 -57 -12 -101 -21 -44 -9 -83 -19 -87 -23 -5 -4 7 -54 26 -111 19
-58 58 -178 86 -268 48 -149 54 -162 72 -156 12 3 73 28 137 54 l116 48 3 46
c2 25 4 46 6 46 2 0 46 -20 97 -44 52 -25 184 -75 294 -112 110 -37 202 -69
204 -70 5 -4 -31 -46 -223 -258 -93 -103 -172 -183 -176 -179 -3 4 -19 51 -35
103 -16 52 -30 96 -31 98 -2 3 -276 -30 -282 -34 -2 -1 19 -71 47 -155 27 -85
68 -215 91 -289 23 -74 45 -139 50 -143 4 -5 72 -25 151 -46 79 -21 154 -41
166 -45 20 -6 18 2 -28 140 -27 81 -49 150 -49 152 0 7 251 -7 284 -16 27 -7
33 -21 135 -317 59 -171 103 -311 99 -313 -4 -2 -49 8 -100 22 -199 54 -600
124 -808 143 -36 3 -67 7 -68 9 -2 1 -28 83 -58 181 -126 411 -205 642 -222
647 -9 3 -82 24 -162 47 -80 23 -146 43 -148 44 -2 2 49 35 112 75 64 39 116
74 116 78 0 7 -99 335 -150 498 -28 88 -32 94 -119 185 -50 52 -91 97 -91 100
0 8 68 23 380 84 129 25 282 56 340 69 172 38 146 61 233 -196z m-2818 173
c-4 -15 0 -21 17 -24 19 -4 18 -5 -7 -6 -26 -2 -27 -4 -10 -11 16 -6 13 -9
-20 -14 -22 -4 -123 -27 -225 -53 -102 -25 -195 -48 -206 -50 -18 -4 -24 2
-34 32 -7 20 -10 38 -8 41 4 3 233 64 363 97 11 2 46 5 78 6 53 1 58 -1 52
-18z m-776 -41 c16 -22 18 -31 9 -35 -61 -20 -121 -33 -133 -29 -7 3 -18 19
-24 35 -10 28 -9 29 32 39 23 6 47 13 52 15 26 9 43 3 64 -25z m141 -126 c6
-14 8 -29 6 -33 -6 -9 -194 -57 -200 -51 -2 3 -6 19 -8 35 -3 29 -1 30 72 52
101 29 118 29 130 -3z m670 6 c0 -5 -8 -7 -17 -4 -16 5 -16 4 -3 -8 15 -13 24
-48 11 -46 -3 1 -13 -2 -21 -5 -8 -3 -42 -11 -75 -17 -33 -7 -125 -27 -203
-46 -79 -19 -148 -31 -153 -28 -9 5 -13 74 -5 74 2 0 66 16 142 35 201 52 324
69 324 45z m-625 -161 c4 -17 5 -33 2 -36 -7 -6 -199 -55 -201 -51 -6 12 -25
72 -23 73 10 5 177 43 194 44 16 1 23 -6 28 -30z m645 -19 c0 -5 -3 -9 -7 -8
-5 1 -21 -10 -38 -26 -53 -50 -84 -59 -368 -111 l-27 -5 16 38 c9 20 18 42 21
49 4 10 104 37 233 62 64 12 170 13 170 1z m1494 -127 c77 -275 128 -438 140
-445 6 -4 64 -26 129 -49 65 -23 116 -45 115 -49 -2 -5 -43 -46 -93 -91 -49
-46 -89 -91 -89 -99 1 -8 23 -85 49 -170 25 -85 59 -195 74 -245 l27 -90 120
-3 121 -3 -58 198 c-32 108 -56 199 -54 201 5 6 246 35 250 30 1 -1 49 -154
105 -338 57 -184 105 -341 108 -348 4 -10 -15 -12 -94 -6 -55 3 -243 9 -418
13 l-319 6 -8 25 c-15 52 -129 478 -149 561 l-22 86 -116 -29 c-168 -41 -172
-42 -172 -29 0 7 42 78 93 159 51 81 100 158 109 172 15 24 12 37 -58 270 -41
135 -74 252 -74 260 0 12 219 149 240 150 3 0 23 -62 44 -137z m-309 -278 l64
-226 -17 -41 -18 -40 -64 60 c-150 137 -235 205 -238 190 -5 -26 120 -504 247
-947 34 -117 60 -215 58 -217 -2 -3 -44 -9 -93 -15 -49 -5 -113 -13 -142 -18
-44 -7 -54 -5 -61 8 -5 9 -27 96 -50 193 -23 98 -57 237 -76 310 -20 73 -58
224 -85 335 -28 111 -54 212 -59 224 -8 24 -8 24 -23 -6 -8 -17 -43 -94 -78
-173 -35 -78 -65 -141 -67 -138 -6 6 -83 395 -83 421 0 19 14 27 108 60 154
54 380 145 502 203 58 27 106 48 108 47 2 -2 32 -105 67 -230z m-844 -127 c14
-53 74 -337 84 -397 l7 -44 -28 22 c-16 12 -83 71 -149 131 -66 60 -121 105
-123 100 -4 -11 74 -364 159 -712 38 -158 69 -294 69 -302 0 -10 -18 -18 -52
-25 -174 -34 -229 -43 -232 -40 -2 2 -22 96 -45 209 -22 113 -52 260 -66 327
-14 67 -36 182 -50 256 -37 200 -46 240 -55 230 -5 -4 -52 -91 -106 -192 l-97
-184 -28 189 c-14 104 -29 212 -33 240 l-6 52 37 6 c169 30 445 98 603 150 41
13 80 24 87 25 7 1 17 -18 24 -41z m-1694 -144 l173 -6 10 -37 c34 -119 177
-643 200 -731 34 -131 68 -251 127 -448 25 -85 41 -158 37 -162 -5 -4 -76 -33
-158 -64 -103 -39 -152 -53 -157 -45 -3 6 -21 102 -39 213 -18 110 -36 209
-41 218 -8 15 -176 87 -242 103 -27 7 -28 7 -22 -31 8 -53 55 -583 55 -616 0
-19 -6 -29 -22 -34 -13 -4 -81 -33 -151 -66 -71 -33 -132 -57 -135 -53 -4 4
-10 185 -15 403 -5 218 -10 406 -12 418 -3 13 -41 46 -99 85 -52 36 -91 70
-88 75 4 5 53 49 110 98 l102 88 -5 112 c-3 61 -8 152 -11 201 l-6 90 -79 99
c-43 54 -79 100 -79 102 0 4 191 0 547 -12z m-739 -22 c15 -15 50 -47 78 -72
l51 -45 6 -275 7 -275 -51 -63 c-45 -55 -50 -64 -36 -75 8 -7 58 -45 110 -85
l95 -73 7 -357 c6 -295 5 -360 -6 -379 -58 -93 -125 -184 -140 -188 -29 -10
-429 -234 -594 -333 l-150 -90 -3 608 -2 609 -110 63 c-60 35 -110 65 -109 68
0 3 50 34 112 70 l111 66 -3 405 -3 406 74 6 c40 4 156 12 258 17 102 6 192
13 200 14 46 11 73 5 98 -22z m1622 13 c0 -2 6 -53 14 -112 8 -59 17 -132 21
-161 l6 -54 -35 34 c-19 18 -55 48 -80 66 l-46 33 0 -28 c0 -16 9 -91 20 -167
22 -158 28 -169 133 -233 31 -19 55 -38 53 -42 -3 -4 -30 -13 -60 -21 -30 -7
-60 -16 -67 -20 -9 -6 0 -70 40 -275 29 -147 51 -268 49 -268 -17 -9 -282 -96
-284 -94 -5 5 -41 255 -61 415 l-18 152 -91 45 c-108 54 -123 77 -66 101 50
20 111 63 123 86 7 14 5 66 -7 173 l-18 153 -83 27 c-46 15 -86 32 -90 38 -3
6 -12 36 -18 69 l-13 58 142 1 c109 1 371 18 429 28 4 0 7 -1 7 -4z m1573
-2787 c8 -29 1 -38 -29 -38 -30 0 -30 -14 -5 -97 11 -35 16 -65 13 -67 -4 -2
-23 -7 -43 -11 l-36 -7 -19 74 c-15 59 -23 73 -39 74 -11 1 -26 2 -32 3 -7 1
-13 14 -13 29 0 27 3 29 73 44 106 22 124 22 130 -4z m-274 -60 c-1 -56 -36
-200 -49 -208 -8 -4 -32 -10 -53 -13 -35 -5 -39 -3 -62 31 -13 20 -44 63 -70
94 -25 31 -42 59 -38 61 5 3 24 8 43 12 34 6 37 4 78 -54 23 -34 47 -61 51
-61 5 0 12 29 16 65 7 71 23 95 61 95 18 0 24 -5 23 -22z m-354 -69 c9 -27 -1
-35 -55 -46 -31 -6 -46 -14 -48 -27 -4 -16 1 -18 35 -12 21 4 46 9 56 12 11 3
17 0 17 -10 0 -22 -28 -46 -55 -46 -23 0 -42 -16 -32 -27 3 -3 31 -1 62 4 51
9 57 8 66 -10 6 -11 7 -23 2 -28 -9 -9 -157 -49 -184 -49 -12 0 -21 24 -38
107 -11 59 -18 110 -13 114 7 7 132 36 164 38 9 1 20 -8 23 -20z m2763 -2258
c41 -21 58 -38 91 -93 74 -123 -4 -290 -143 -305 -67 -8 -108 4 -155 43 -70
60 -100 141 -80 219 13 51 70 122 113 141 46 20 130 17 174 -5z"/>
<path d="M3605 5373 c10 -297 14 -327 38 -343 114 -71 200 -121 204 -117 2 3
-22 119 -55 259 -33 139 -66 279 -73 311 l-12 57 -54 0 -54 0 6 -167z"/>
<path d="M2733 5473 l-53 -4 0 -285 c0 -156 4 -284 8 -284 4 0 46 26 93 58
l84 57 3 60 c2 33 1 138 -3 233 l-7 172 -37 -2 c-20 -1 -60 -3 -88 -5z"/>
<path d="M2776 4667 l-79 -10 7 -360 c4 -199 9 -364 12 -366 8 -9 234 108 241
125 3 8 2 152 -2 319 l-7 305 -47 -1 c-25 -1 -82 -6 -125 -12z"/>
</g>
</svg>
